<svg width="22" height="22" viewBox="0 0 22 22" fill="none" xmlns="http://www.w3.org/2000/svg">
<path d="M18.3333 10.0833C17.8271 10.0833 17.4167 10.4937 17.4167 11V16.5C17.4167 17.0063 17.0063 17.4167 16.5 17.4167H5.5C4.99374 17.4167 4.58333 17.0063 4.58333 16.5V5.5C4.58333 4.99374 4.99374 4.58333 5.5 4.58333H11C11.5063 4.58333 11.9167 4.17293 11.9167 3.66667C11.9167 3.16041 11.5063 2.75 11 2.75H5.5C3.98122 2.75 2.75 3.98122 2.75 5.5V16.5C2.75 18.0188 3.98122 19.25 5.5 19.25H16.5C18.0188 19.25 19.25 18.0188 19.25 16.5V11C19.25 10.4937 18.8396 10.0833 18.3333 10.0833Z" fill="#637381"/>
<path opacity="0.48" d="M14.6667 4.58333H16.115L10.3492 10.34C10.1756 10.5121 10.078 10.7464 10.078 10.9908C10.078 11.2353 10.1756 11.4695 10.3492 11.6417C10.5213 11.8152 10.7556 11.9128 11 11.9128C11.2444 11.9128 11.4787 11.8152 11.6508 11.6417L17.4167 5.885V7.33333C17.4167 7.83959 17.8271 8.25 18.3333 8.25C18.8396 8.25 19.25 7.83959 19.25 7.33333V3.66667C19.25 3.16041 18.8396 2.75 18.3333 2.75H14.6667C14.1604 2.75 13.75 3.16041 13.75 3.66667C13.75 4.17293 14.1604 4.58333 14.6667 4.58333Z" fill="#637381"/>
</svg>
